<svg xmlns="http://www.w3.org/2000/svg" xmlns:xlink="http://www.w3.org/1999/xlink" width="109" height="49" viewBox="0 0 109 49">
    <defs>
        <path id="a" d="M95.284 36.122H14.248v-23.34h81.036z"/>
    </defs>
    <g fill="none" fill-rule="evenodd">
        <path fill="#CC8C14" d="M0 7.584v4.57h4.538v-4.57a3.069 3.069 0 0 1 3.07-3.06h4.585V0H7.608C3.413 0 0 3.402 0 7.584zm4.538 33.817v-4.57H0v4.57c0 4.182 3.413 7.584 7.608 7.584h4.585v-4.524H7.608a3.069 3.069 0 0 1-3.07-3.06zm99.924 0a3.069 3.069 0 0 1-3.07 3.06h-4.585v4.524h4.585c4.195 0 7.608-3.402 7.608-7.584v-4.57h-4.538v4.57zM109 7.584v4.57h-4.538v-4.57a3.069 3.069 0 0 0-3.07-3.06h-4.585V0h4.585C105.587 0 109 3.402 109 7.584z"/>
        <mask id="b" fill="#fff">
            <use xlink:href="#a"/>
        </mask>
        <path fill="#171717" d="M87.783 27.191c0-1.04-.111-1.748-.332-2.124-.221-.377-.597-.565-1.128-.565l-1.063.233v5.278c.288.067.642.1 1.063.1.973 0 1.46-.974 1.46-2.922zm7.5-.166c0 3.409-.652 5.777-1.958 7.105-1.305 1.328-3.684 1.992-7.135 1.992-1.417 0-3.706-.188-6.87-.564l-1.494-.2V12.783h7.434v6.241c1.46-.354 2.611-.53 3.452-.53 4.381 0 6.572 2.844 6.572 8.531zm-27.951-2.324c0-1.992-.205-3.32-.614-3.983-.41-.664-1.323-.997-2.739-.997h-1.36v9.695h1.36c1.15 0 2.003-.288 2.556-.863.531-.576.797-1.86.797-3.852zm5.243-8.665c1.682 1.726 2.523 4.488 2.523 8.284 0 3.796-.808 6.64-2.423 8.532-1.616 1.892-4.293 2.838-8.032 2.838H54.92V13.447h9.392c3.828 0 6.583.863 8.264 2.59zm-34.158 5.91l-1.726-8.5h-11.45V35.69h7.7V24.236h.365l1.892 11.222h6.438l1.925-11.222h.365V35.69h7.7V13.447H39.844l-1.427 8.499zM14.248 35.69h7.7V13.447h-7.7V35.69z" mask="url(#b)"/>
    </g>
</svg>
